/* XPM */
static char *out[] = {
/* columns rows colors chars-per-pixel */
"16 16 4 1 ",
"  c None",
". c gray74",
"X c gray",
"o c gray75",
/* pixels */
"                ",
"       XX       ",
"       XX       ",
"       XXX      ",
"      XXXX      ",
"      XXXX      ",
"     XXXXXX     ",
"     XXXXXXX    ",
"    XXXXXXXX    ",
"    XXXXXXXXX   ",
"   XXXX  XXXX   ",
"  XXXX    XXXX  ",
"  XXXX    XXXX  ",
" XXXX      XXXX ",
" XX          XX ",
"                "
};
