/* XPM */
static char * Archlinux_icon_white_20x20_scaled_xpm[] = {
"20 20 4 1",
" 	c None",
".	c #BEBEBE",
"+	c #BFBFBF",
"@	c #BDBDBD",
"                    ",
"                    ",
"         ..         ",
"         ..         ",
"        ....        ",
"        ....        ",
"        .....       ",
"       ......       ",
"      ........      ",
"      ........      ",
"     ..........     ",
"     ....++....     ",
"    .....  .....    ",
"    ....    ....    ",
"   .....    .....   ",
"  ......    .....   ",
"  ...@.      .....  ",
" ....          .... ",
" .@              @. ",
"                    "};
