/* XPM */
static char *out[] = {
/* columns rows colors chars-per-pixel */
"32 32 12 1 ",
"  c None",
". c #453961",
"X c #443A62",
"o c #453A62",
"O c #453A63",
"+ c #463B62",
"@ c #5E4F86",
"# c #5E4F87",
"$ c #5D5086",
"% c #5E5086",
"& c #8E4D8B",
"* c #8F4E8B",
/* pixels */
"                                ",
"                                ",
"                                ",
"                                ",
"                                ",
"                                ",
"  OOOOO  #%%%#                  ",
"   OOOOO  %%%%                  ",
"    OOOOO %%%%%                 ",
"    OOOOO  %%%%#                ",
"     OOOOO  %%%%                ",
"      OOOOO %%%%%               ",
"      OOOOO  %%%%# ***********  ",
"       OOOOO  %%%%  **********  ",
"        OOOOO %%%%%  *********  ",
"        OOOOO  %%%%#            ",
"        OOOOO  %%%%%            ",
"        OOOOO %%%%%%%  *******  ",
"       OOOOO  %%%%%%%# *******  ",
"      OOOOO  %%%%%%%%%  ******  ",
"      OOOOO %%%%% %%%%%         ",
"     OOOOO  %%%%   %%%%#        ",
"    OOOOO  %%%%%    %%%%        ",
"    OOOOO %%%%%     %%%%%       ",
"   OOOOO  %%%%       %%%%#      ",
"  OOOOO  #%%%#        %%%%      ",
"                                ",
"                                ",
"                                ",
"                                ",
"                                ",
"                                "
};
