/* XPM */
static char *out[] = {
/* columns rows colors chars-per-pixel */
"32 32 43 1 ",
"  c #453A62",
". c #473C64",
"X c #483D64",
"o c #4E446A",
"O c #5E5477",
"+ c #62597B",
"@ c #5E5086",
"# c #625589",
"$ c #675A8D",
"% c #78708D",
"& c #736796",
"* c #776B99",
"= c #7E739E",
"- c #7F749F",
"; c #8F4E8B",
": c #904F8C",
"> c #9F689C",
", c #8176A1",
"< c #8E87A0",
"1 c #8D83AA",
"2 c #9D97AC",
"3 c #9E98AD",
"4 c #BF9ABD",
"5 c #B2AEBE",
"6 c #AFA9C3",
"7 c #B0A9C4",
"8 c #B4AEC7",
"9 c #B6B0C8",
"0 c #C6C1D4",
"q c #D8D5DE",
"w c #E6D7E5",
"e c #E2DFE9",
"r c #E9DCE8",
"t c #E4E2EB",
"y c #ECE1EB",
"u c #E8E6EB",
"i c #E8E7EC",
"p c #EBEAF0",
"a c #F0E7F0",
"s c #F1E9F0",
"d c #F7F3F7",
"f c #F9F9FA",
"g c white",
/* pixels */
"gggggggggggggggggggggggggggggggg",
"gggggggggggggggggggggggggggggggg",
"gggggggggggggggggggggggggggggggg",
"gggggggggggggggggggggggggggggggg",
"gggggggggggggggggggggggggggggggg",
"gggggggggggggggggggggggggggggggg",
"gg<OOOOqp*&&&1gggggggggggggggggg",
"ggio   +f7@@@@9ggggggggggggggggg",
"ggg5    2g-@@@#tgggggggggggggggg",
"gggg%   .qt#@@@,gggggggggggggggg",
"ggggio   +f7@@@@9ggggggggggggggg",
"ggggg5    2g-@@@#tgsaaaaaaaaaagg",
"gggggg%   .qt#@@@,g4;;;;;;;;;;gg",
"ggggggio   +f7@@@@9f>;;;;;;;;;gg",
"ggggggg5    2g-@@@#tw:;;;;;;;;gg",
"gggggggg%   Xqt#@@@,gyrrrrrrrrgg",
"gggggggg%   Xqe#@@@@9gsrrrrrrrgg",
"ggggggg5    3g=@@@@@#tw:;;;;;;gg",
"gggggguo   +f6@@@@@@@,g4;;;;;;gg",
"gggggg%   Xqe#@@@$@@@@9f>;;;;;gg",
"ggggg5    2g-@@@#e-@@@#tdaaaaagg",
"gggguo   +f6@@@@9gt#@@@,gggggggg",
"gggg%   Xqe#@@@,ggg7@@@@9ggggggg",
"ggg5    2g-@@@#tgggg-@@@#tgggggg",
"gguo   +f6@@@@9gggggt#@@@,gggggg",
"gg<OOOOqp*&&&1ggggggg8&&&&0ggggg",
"gggggggggggggggggggggggggggggggg",
"gggggggggggggggggggggggggggggggg",
"gggggggggggggggggggggggggggggggg",
"gggggggggggggggggggggggggggggggg",
"gggggggggggggggggggggggggggggggg",
"gggggggggggggggggggggggggggggggg"
};
