/* XPM */
static char *out[] = {
/* columns rows colors chars-per-pixel */
"32 32 105 2 ",
"   c None",
".  c #5F5088",
"X  c #605188",
"o  c #62538A",
"O  c #62548A",
"+  c #67598D",
"@  c #685A8E",
"#  c #6D6091",
"$  c #6F6292",
"%  c #706393",
"&  c #776B97",
"*  c #796D99",
"=  c #7A6E9A",
"-  c #7B6F9B",
";  c #7C709C",
":  c #847AA0",
">  c #8A80A5",
",  c #8B82A4",
"<  c #8A80A6",
"1  c #8D84A5",
"2  c #9087A7",
"3  c #9188A8",
"4  c #9189A8",
"5  c #9289A8",
"6  c #938CA9",
"7  c #958DAA",
"8  c #968EAC",
"9  c #968FAC",
"0  c #9890AD",
"q  c #9992AD",
"w  c #9B94AE",
"e  c #9C95AF",
"r  c #9C96AF",
"t  c #9D96AF",
"y  c #9991B0",
"u  c #9A91B0",
"i  c #9E97B2",
"p  c #A19BB2",
"a  c #A29CB2",
"s  c #A9A4B7",
"d  c #A7A1B8",
"f  c #A8A2B8",
"g  c #A9A3B9",
"h  c #A8A1BA",
"j  c #A8A2BB",
"k  c #AAA5B8",
"l  c #ABA6B8",
"z  c #B0ACBB",
"x  c #B1ADBC",
"c  c #B1ACBF",
"v  c #B2ADBE",
"b  c #B2ADC0",
"n  c #B7B2C5",
"m  c #B9B6C1",
"M  c #B9B6C2",
"N  c #B8B3C4",
"B  c #B8B3C5",
"V  c #BCB8C7",
"C  c gray78",
"Z  c #C5C3CB",
"A  c #C4C1CE",
"S  c #C6C3CE",
"D  c #C6C3CF",
"F  c #C8C8C8",
"G  c #CBC9CE",
"H  c #CBCACE",
"J  c #CECECE",
"K  c gray81",
"L  c #C7C4D0",
"P  c #CBC9D1",
"I  c #CECDD1",
"U  c #CFCED2",
"Y  c #CFCDD5",
"T  c #D1CFD6",
"R  c #D1CFD7",
"E  c #D1D1D3",
"W  c #D2D2D2",
"Q  c LightGray",
"!  c #D2D2D4",
"~  c #D3D1D8",
"^  c #D7D6D8",
"/  c #D7D7D8",
"(  c #D7D6DB",
")  c #D9D7DC",
"_  c #D8D8D8",
"`  c #D8D8D9",
"'  c #DAD9DD",
"]  c #DBDADE",
"[  c #DCDCDD",
"{  c #DDDDDD",
"}  c #DDDDDF",
"|  c #DFDFDF",
" . c #DEDEE0",
".. c gray88",
"X. c #E1E1E1",
"o. c #E1E0E2",
"O. c #E1E1E2",
"+. c #E2E2E2",
"@. c #E2E2E3",
"#. c #E3E3E3",
"$. c #E3E3E4",
"%. c #E4E4E4",
"&. c #E7E7E7",
"*. c #E9E9E9",
"=. c #EAEAEA",
/* pixels */
"                                                                ",
"                                                                ",
"                                                                ",
"      *.*.*.*.*.*.*.*.*.*.*.*.*.*.*.*.*.*.*.*.*.*.*.*.*.*.      ",
"      %.%.%.%.%.%.%.%.%.%.%.%.%.%.%.%.%.%.%.%.%.%.%.%.%.%.      ",
"      %.%.%.%.%.%.%.%.%.%.%.%.%.%.%.%.%.%.%.%.%.%.%.%.%.%.      ",
"      %.%.%.%.%.%.%.%.%.%.%.%.%.%.%.%.%.%.%.%.%.%.%.%.%.%.      ",
"      %.%.%.T , , i %.L X . ; $.%.%.%.%.%.%.%.%.%.%.%.%.%.      ",
"      %.%.%.+.a , , D +.: . . B %.%.%.%.%.%.%.%.%.%.%.%.%.      ",
"      %.%.%.%.H 1 , 8 +.Z O . % +.%.%.%.%.%.%.%.%.%.%.%.%.      ",
"      %.%.%.%.+.k , , V +.3 . . f %.%.%.%.%.%.%.%.%.%.%.%.      ",
"      %.%.%.%.%.! 2 , 3 } U + . @ ] %.%.%.%.%.%.%.%.%.%.%.      ",
"      %.%.%.%.%.+.z , , b +.r . . y %.%.%.%.%.%.%.%.%.%.%.      ",
"      %.%.%.%.%.%.` 7 , 1 ( ( $ . X T +.q , , , , B %.%.%.      ",
"      %.%.%.%.%.%.+.M , , f +.k . . , +.M , , , , c %.%.%.      ",
"      %.%.%.%.%.%.%.} w , , Y } = . . D } J J J J ` %.%.%.      ",
"      %.%.%.%.%.%.%.%.r , , P %.= . . = $.%.%.%.%.%.%.%.%.      ",
"      %.%.%.%.%.%.%.D , , p } n . . . . B %.f , , B %.%.%.      ",
"      %.%.%.%.%.%.+.8 , 1 H +.% . X X . % +.H 1 , c %.%.%.      ",
"      %.%.%.%.%.%.V , , s +.f . . 3 3 . . f +.J J ` %.%.%.      ",
"      %.%.%.%.%. .3 , 2 W ] @ . + U U + . @ ] %.%.%.%.%.%.      ",
"      %.%.%.%.%.c , , c +.y . . r +.+.r . . y %.%.%.%.%.%.      ",
"      %.%.%.%.) 1 , 6 ` ~ O . $ ( %.%.( $ . X T %.%.%.%.%.      ",
"      %.%.%.%.d , , M +., . . k +.%.%.+.k . . , %.%.%.%.%.      ",
"      %.%.%.T , , q } L X . & } %.%.%.%.} = . . D %.%.%.%.      ",
"      %.%.%.+.J J W %.+.J J W %.%.%.%.%.%.W J J } %.%.%.%.      ",
"      %.%.%.%.%.%.%.%.%.%.%.%.%.%.%.%.%.%.%.%.%.%.%.%.%.%.      ",
"      +.%.%.%.%.%.%.%.%.%.%.%.%.%.%.%.%.%.%.%.%.%.%.%.%.+.      ",
"      F +.%.%.%.%.%.%.%.%.%.%.%.%.%.%.%.%.%.%.%.%.%.%.+.C       ",
"                                                                ",
"                                                                ",
"                                                                "
};
