/* XPM */
static char * Haskell_icon_gray_28x20_xpm[] = {
"28 20 6 1",
" 	c None",
".	c #666666",
"+	c #999999",
"@	c #9A9A9A",
"#	c #989898",
"$	c #676767",
".....  ++++@                ",
" .....  ++++                ",
"  ..... +++++               ",
"  .....  ++++#              ",
"   .....  ++++              ",
"    ..... +++++             ",
"    .....  ++++# ...........",
"     .....  ++++  ..........",
"      ..... +++++  .........",
"      .....  ++++#          ",
"      .....  +++++          ",
"      ....$ +++++++  .......",
"     .....  +++++++# .......",
"    .....  +++++++++  ......",
"    ....$ +++++ +++++       ",
"   .....  ++++   ++++#      ",
"  .....  ++++#    ++++      ",
"  ....$ +++++     +++++     ",
" .....  ++++       ++++#    ",
".....  ++++@        ++++    "};
